<?xml version="1.0" encoding="utf-8"?>
<!-- Generator: Adobe Illustrator 24.2.1, SVG Export Plug-In . SVG Version: 6.00 Build 0)  -->
<svg version="1.1" id="RBG" xmlns="http://www.w3.org/2000/svg" xmlns:xlink="http://www.w3.org/1999/xlink" x="0px" y="0px"
	 viewBox="0 0 646.9 407.4" style="enable-background:new 0 0 646.9 407.4;" xml:space="preserve">
<style type="text/css">
	.st0{fill:#1D252D;}
	.st1{fill:url(#SVGID_1_);}
</style>
<path class="st0" d="M104.8,281.2c-12.5,14.7-26.3,21.1-45.5,21.1c-17.4,0-32.1-6.4-42.7-18.3C6.1,272.2,0,255.2,0,237.9
	c0-37.3,25.2-64.5,59.5-64.5c11-0.1,21.7,2.9,31.1,8.4c5,3.2,8.4,6.2,14.6,12.9l-10.8,10.1c-12.1-12.5-21.3-17-34.5-17
	c-25.4,0-43.8,21.1-43.9,50.2c0,28.9,18.8,50,44.6,50c13.6,0,24.1-5.4,33.8-17.1L104.8,281.2z"/>
<path class="st0" d="M186.2,214h14.2v86h-14.2v-16.6c-8.6,12.9-18.3,18.6-31.4,18.6c-23.7,0-40.5-18.7-40.5-44.8
	c0-26.3,17.2-45.3,40.9-45.3c13.1,0,22.6,5,31,16.2L186.2,214z M136.4,234.9c-4.7,6.7-7.2,14.6-7.1,22.8c0,18.3,11.9,32.1,27.6,32.1
	c16.2,0,29.5-15.1,29.5-33.6c0-18.6-11.9-31.5-29.1-31.5C147.9,224.7,141.4,227.8,136.4,234.9L136.4,234.9z"/>
<path class="st0" d="M240.3,214.1v12.1c7.5-10.1,14.9-14.2,25.6-14.2c7.3-0.1,14.4,2.4,20,7.1c5.4,5.2,7.3,11.2,7.3,23v58h-14.3
	v-54.9c0-7.6-0.9-11.8-3.2-14.7c-2.6-3.5-7.6-5.8-13.4-5.8c-6.3-0.1-12.3,2.6-16.4,7.3c-4.1,4.5-5.6,8.6-5.6,15.7v52.4h-14.2v-86
	L240.3,214.1z"/>
<path class="st0" d="M327.4,261.7c0.7,7.3,2,11,5.6,15.7c5.3,7.5,14,11.9,23.1,11.8c10.6,0,20.4-5.6,25.8-14.7l12.5,4.7
	c-7.1,14.4-21.8,23.1-38.2,23.1c-25.6,0-43.8-18.7-43.8-44.8c0-26.5,18.1-45.3,43.3-45.3c25,0,43.6,18.9,43.6,44
	c0,1.1,0,3.5-0.2,5.6L327.4,261.7z M384.1,251.2c-0.6-6.7-1.9-10.4-4.9-14.7c-5.6-7.4-14.4-11.8-23.7-11.8
	c-9.2-0.1-17.9,4.3-23.1,11.9c-2.6,4.1-3.7,7.6-4.9,14.5L384.1,251.2z"/>
<path class="st0" d="M419.5,300.1h-17.4l31.7-42.7l-32.3-43.3h17.9l22.9,31.5l23.5-31.5h17.3l-32.5,43.3l31,42.7h-17.4l-22-31.2
	L419.5,300.1z"/>
<path class="st0" d="M512.7,190.1c0,5-4,9-9,9c-0.1,0-0.1,0-0.2,0c-5-0.2-9-4.5-8.8-9.5c0.2-4.8,4.1-8.7,9-8.8c5,0.1,9,4.2,9,9.2
	C512.7,190,512.7,190,512.7,190.1z M510.6,300.2h-14.2v-86h14.2L510.6,300.2z"/>
<path class="st0" d="M602.2,214.2h14.2v86h-14.2v-16.6c-8.6,12.9-18.3,18.6-31.3,18.6c-23.7,0-40.5-18.7-40.5-44.8
	c0-26.3,17.2-45.3,40.9-45.3c13.1,0,22.6,5,31,16.2L602.2,214.2z M552.4,235.1c-4.7,6.7-7.2,14.6-7.1,22.8
	c0,18.3,11.9,32.1,27.6,32.1c16.2,0,29.5-15.1,29.5-33.6c0-18.7-11.9-31.5-29.1-31.5C564,224.8,557.4,228,552.4,235.1L552.4,235.1z"
	/>
<path class="st0" d="M324,406h-9.9v-78.6h9.9v35.4h38.3v-35.4h9.9V406h-9.9v-34.8h-38.3L324,406z"/>
<path class="st0" d="M395,381.8c0.5,4.6,1.3,7,3.5,9.9c3.4,4.7,8.8,7.5,14.6,7.4c6.7,0,12.9-3.5,16.3-9.3l7.9,3
	c-4.6,9.1-14,14.8-24.2,14.6c-16.2,0-27.7-11.8-27.7-28.3c0-16.7,11.5-28.6,27.4-28.6s27.6,11.9,27.6,27.8c0,0.7,0,2.2-0.1,3.5
	L395,381.8z M430.9,375.2c-0.4-4.2-1.2-6.6-3.1-9.3c-3.5-4.7-9.1-7.5-15-7.4c-5.8-0.1-11.3,2.7-14.6,7.5c-1.7,2.6-2.4,4.8-3.1,9.2
	L430.9,375.2z"/>
<path class="st0" d="M493.5,351.7h9v54.4h-9v-10.5c-5.4,8.1-11.6,11.8-19.8,11.8c-15,0-25.6-11.8-25.6-28.3s10.9-28.6,25.8-28.6
	c8.2,0,14.3,3.2,19.6,10.3L493.5,351.7z M462,364.9c-2.9,4.2-4.5,9.2-4.5,14.4c0,11.5,7.5,20.3,17.4,20.3c10.3,0,18.6-9.5,18.6-21.2
	s-7.5-19.9-18.4-19.9C469.3,358.4,465.2,360.4,462,364.9z"/>
<path class="st0" d="M519.3,406.1v-78.6h9v78.6H519.3z"/>
<path class="st0" d="M554.7,395c0.1,2.7,0.8,3.3,4.1,3.3h4.1v7.8h-8.4c-6.4-0.1-8.8-2.5-8.8-8.5v-38h-7.5v-7.9h7.6v-17.1h9v17.1h8.2
	v7.9h-8.2L554.7,395z"/>
<path class="st0" d="M583.1,359.3c5-6.1,9.9-8.8,16.4-8.8c4.7,0,9.7,1.9,12.6,5s4.2,7.2,4.2,14.1v36.6h-9V370
	c0-7.4-3.7-11.5-10.1-11.6c-4.1,0-8,1.7-10.6,4.8c-2.7,3.1-3.5,5.8-3.5,11v31.8h-9v-78.6h9L583.1,359.3z"/>
<linearGradient id="SVGID_1_" gradientUnits="userSpaceOnUse" x1="14.9425" y1="272.0812" x2="280.2857" y2="425.2831" gradientTransform="matrix(1 0 0 -1 0 409.0811)">
	<stop  offset="0.1" style="stop-color:#F9423A"/>
	<stop  offset="0.9" style="stop-color:#EAAA00"/>
</linearGradient>
<path class="st1" d="M111,99.5c-0.8,0-1.6-0.3-2.1-0.9c-1.2-1.2-1.2-3.1-0.1-4.2c0,0,0,0,0.1-0.1l93.3-93.3c1.2-1.2,3.1-1.2,4.3,0
	c1.2,1.2,1.2,3.1,0,4.3l-93.3,93.2C112.6,99.2,111.8,99.5,111,99.5z M169,100.8l93.3-93.3c1.2-1.2,1.2-3.1,0-4.3
	c-1.2-1.2-3.1-1.2-4.3,0l-93.3,93.2c-1.2,1.2-1.2,3.1,0,4.3C165.8,101.9,167.8,101.9,169,100.8L169,100.8L169,100.8z M36.8,116.7
	l89.1-89c1.2-1.2,1.2-3.1,0-4.3s-3.1-1.2-4.3,0l-89.1,89c-1.2,1.1-1.3,3-0.1,4.2c0.6,0.6,1.4,1,2.3,0.9
	C35.4,117.6,36.2,117.3,36.8,116.7z M7.7,116.7L89,35.5c1.2-1.2,1.2-3.1,0-4.3s-3.1-1.2-4.3,0L3.4,112.4c-1.2,1.2-1.2,3.1,0,4.3
	S6.5,117.9,7.7,116.7L7.7,116.7z M120.3,120.4l81.3-81.2c1.2-1.2,1.2-3.1,0-4.3c-1.2-1.2-3.1-1.2-4.3,0L116,116.1
	c-1.2,1.2-1.2,3.1,0,4.3S119.1,121.5,120.3,120.4L120.3,120.4z M107.2,75.4l70.2-70.2c1.2-1.2,1.2-3.1,0-4.3c-1.2-1.2-3.1-1.2-4.3,0
	l-70.2,70.2c-1.2,1.2-1.2,3.1,0,4.3C104.1,76.5,106,76.6,107.2,75.4C107.2,75.4,107.2,75.4,107.2,75.4L107.2,75.4z M207,91.7
	l84.4-84.3c1.2-1.2,1.2-3.1,0-4.3c-1.2-1.2-3.1-1.2-4.3,0l-84.4,84.3c-1.2,1.2-1.2,3.1,0,4.3C203.8,92.9,205.8,92.9,207,91.7z"/>
<path class="st0" d="M623.1,343.5h-2.4v-14.1h-4.2v-2h10.8v2h-4.2L623.1,343.5z M632.6,343.5h-2.4v-16h2.3l6.1,11.6l6.1-11.6h2.3v16
	h-2.4v-11l-6,11.4l-6-11.4L632.6,343.5z"/>
</svg>
