<?xml version="1.0" encoding="UTF-8" standalone="no"?>
<!-- Created with Inkscape (http://www.inkscape.org/) -->

<svg
   version="1.1"
   id="svg427"
   width="402.66666"
   height="390.66666"
   viewBox="0 0 402.66666 390.66666"
   sodipodi:docname="VanBUG_Logo_Icon.svg"
   inkscape:version="1.1.1 (3bf5ae0d25, 2021-09-20)"
   xmlns:inkscape="http://www.inkscape.org/namespaces/inkscape"
   xmlns:sodipodi="http://sodipodi.sourceforge.net/DTD/sodipodi-0.dtd"
   xmlns:xlink="http://www.w3.org/1999/xlink"
   xmlns="http://www.w3.org/2000/svg"
   xmlns:svg="http://www.w3.org/2000/svg">
  <defs
     id="defs431" />
  <sodipodi:namedview
     id="namedview429"
     pagecolor="#505050"
     bordercolor="#ffffff"
     borderopacity="1"
     inkscape:pageshadow="0"
     inkscape:pageopacity="0"
     inkscape:pagecheckerboard="1"
     showgrid="false"
     inkscape:zoom="1.5801303"
     inkscape:cx="196.81921"
     inkscape:cy="242.06864"
     inkscape:window-width="1679"
     inkscape:window-height="1401"
     inkscape:window-x="70"
     inkscape:window-y="0"
     inkscape:window-maximized="0"
     inkscape:current-layer="g433" />
  <g
     inkscape:groupmode="layer"
     inkscape:label="Image"
     id="g433">
    <path
       style="fill:#69cc07;stroke:none;stroke-width:2"
       d="m 164,47.999999 h -1.33334 C 153.952,39.165733 136.448,29.275066 124,28 c 0.9368,12.426666 15.932,21.264666 26.66666,25.333332 v 2.666667 c -21.48626,11.3812 -22.9528,38.117199 -9.652,56.000001 19.112,25.696 61.60534,51.152 92.31867,60 v 1.33333 c -14.26533,4.516 -27.248,15.50267 -40,23.19867 -27.72667,16.73333 -55.71867,33.512 -82.66667,51.468 -13.613195,9.07066 -34.738928,18.46 -44.194394,32.05333 -17.897467,25.72933 22.479733,52.648 40.194394,64.12666 7.32147,4.744 16.35734,11.01734 25.33334,9.15334 -7.67174,-16.44 -29.90974,-26.21334 -42.647068,-38.71867 -4.3004,-4.22267 -12.2876,-11.78533 -10.744933,-18.61467 1.593333,-7.05333 10.765466,-13.31333 16.058666,-17.59333 C 109.97,266.03066 126.30266,254.90933 142.66666,244 c 24.42534,-16.284 49.19867,-32.248 74.66667,-46.86667 9.09867,-5.22267 21.27733,-15.32133 32,-16.144 7.32533,-0.56133 15.53867,6.34667 21.33333,10.136 17.47334,11.428 39.13867,24.36667 52.096,40.99467 10.91467,14.00533 4.78133,28.992 -8.09733,39.18933 -26.188,20.736 -57.95067,35.804 -86.66533,52.70533 -9.84934,5.79733 -20.024,11.63867 -29.32667,18.28 -1.92533,1.37467 -9.88933,6.60267 -5.79067,9.564 5.18667,3.74533 17.37067,-5.82133 21.784,-8.15067 20.928,-11.04266 41.77067,-22.23466 62.66667,-33.33466 22.508,-11.956 54.49333,-24.96933 64.696,-50.37333 13.86533,-34.524 -29.53067,-55.83867 -52.696,-72.56534 -8.69467,-6.27866 -16.924,-13.492 -26.66667,-18.10133 5.316,-5.32 11.14,-10.46933 14.48134,-17.33333 C 295.332,114.64333 233.38133,85.502932 208,71.692399 c -8.45067,-4.598133 -22.61734,-9.341333 -28.60534,-17.058667 -4.29466,-5.536133 15.268,-13.202799 18.4,-17.424933 1.52667,-2.0564 4.33467,-6.942666 1.34267,-9.031866 -2.86133,-1.998667 -7.37467,1.126 -9.804,2.510266 -8.512,4.849067 -18.516,10.276134 -25.33333,17.3128 m 1.33333,19.265467 c 8.87333,-2.1672 19.50933,6.628533 26.66667,10.872399 22.232,13.181867 51.30933,27.673595 67.28933,48.533995 8.43333,11.00814 1.64933,33.2388 -12.62267,36.72947 -8.56933,2.096 -20.584,-5.38267 -28,-9.06533 -22.496,-11.168 -54.87066,-25.1456 -69.59466,-46.3412 -8.284,-11.925068 2.088,-37.268135 16.26133,-40.729334 z"
       id="path1240" />
  </g>
</svg>
